<?xml version="1.0" standalone="no"?>
<!DOCTYPE svg PUBLIC "-//W3C//DTD SVG 20010904//EN"
 "http://www.w3.org/TR/2001/REC-SVG-20010904/DTD/svg10.dtd">
<svg version="1.0" xmlns="http://www.w3.org/2000/svg"
 width="1920.000000pt" height="1080.000000pt" viewBox="0 0 1920.000000 1080.000000"
 preserveAspectRatio="xMidYMid meet">

<g transform="translate(0.000000,1080.000000) scale(0.100000,-0.100000)"
fill="#000000" stroke="none">
<path d="M0 5400 l0 -5400 9600 0 9600 0 0 5400 0 5400 -9600 0 -9600 0 0
-5400z m13685 4879 c-14 -127 -27 -234 -28 -238 -1 -3 2 -8 7 -9 5 -2 63 101
128 229 121 238 138 268 138 234 0 -17 -22 -68 -116 -273 -19 -41 -34 -76 -34
-80 0 -3 -14 -34 -31 -69 -17 -35 -29 -66 -27 -69 4 -3 153 143 203 200 113
127 160 176 167 176 10 0 -15 -37 -62 -90 -89 -100 -134 -151 -187 -215 -32
-38 -68 -81 -80 -95 -21 -23 -31 -50 -18 -50 8 0 372 182 412 206 18 10 67 41
109 68 61 39 78 46 85 35 14 -23 7 -31 -73 -73 -41 -23 -82 -47 -90 -53 -8 -7
-30 -19 -49 -28 -46 -21 -72 -38 -82 -52 -4 -7 -12 -13 -17 -13 -5 0 -34 -16
-64 -35 -30 -19 -60 -35 -66 -35 -5 0 -10 -7 -10 -15 0 -17 28 -20 62 -6 13 5
46 19 75 30 28 12 66 21 82 21 31 0 123 37 129 52 5 11 32 10 32 -1 0 -5 9
-11 20 -14 13 -3 20 0 20 9 0 10 12 14 40 14 28 0 40 -4 40 -14 0 -8 8 -17 18
-21 19 -6 66 -74 57 -83 -3 -3 -26 -6 -52 -8 -27 -1 -84 -11 -128 -22 -125
-32 -195 -45 -260 -49 -33 -2 -69 -8 -80 -13 -11 -5 -27 -9 -35 -8 -32 3 -51
-2 -45 -12 4 -6 15 -8 26 -5 14 5 19 1 19 -14 0 -14 9 -23 28 -27 15 -4 31 -9
36 -12 6 -3 19 -7 30 -8 127 -14 183 -41 124 -60 -20 -6 -20 -8 13 -25 19 -10
46 -18 61 -19 15 0 30 -4 33 -10 3 -5 22 -10 41 -10 19 0 34 -4 34 -10 0 -5
18 -10 40 -10 29 0 40 -4 40 -15 0 -11 -5 -12 -22 -6 -13 5 -48 12 -78 16 -30
4 -66 12 -80 17 -61 23 -398 83 -409 72 -2 -2 3 -4 12 -4 10 0 17 -4 17 -10 0
-5 23 -33 50 -61 49 -50 60 -69 40 -69 -16 0 -12 -22 8 -36 15 -12 15 -13 1
-14 -9 0 -24 10 -35 21 -10 12 -47 35 -81 52 -35 16 -63 34 -63 40 0 8 -3 8
-10 1 -7 -7 -4 -26 11 -60 31 -72 39 -102 27 -106 -6 -2 -3 -11 7 -21 24 -25
15 -29 -13 -6 -13 10 -21 23 -18 28 3 5 -3 11 -14 14 -11 3 -24 16 -29 29 -5
13 -16 30 -25 37 -9 7 -16 20 -16 27 0 8 -5 14 -11 14 -8 0 -10 -23 -6 -79 2
-43 1 -84 -4 -92 -7 -12 -9 -12 -9 1 -1 10 -5 7 -14 -8 -12 -22 -13 -21 -24
28 -7 28 -12 65 -12 81 0 48 -17 25 -41 -56 -31 -105 -58 -99 -50 12 1 17 -3
34 -9 38 -13 8 -60 -43 -60 -66 0 -11 -4 -19 -8 -19 -4 0 -13 -13 -19 -30 -6
-17 -19 -30 -28 -30 -14 0 -15 7 -10 48 4 26 16 64 26 86 11 21 18 40 16 42
-2 2 -30 -21 -63 -51 -33 -31 -65 -53 -73 -50 -7 3 -19 -1 -25 -9 -14 -18 -56
-31 -56 -17 0 6 7 11 15 11 8 0 15 5 15 10 0 6 11 20 25 32 14 12 25 28 25 35
0 7 6 13 14 13 8 0 19 14 25 30 5 17 17 33 26 36 8 3 15 12 15 19 0 15 -36 9
-59 -9 -7 -6 -26 -9 -41 -8 -16 2 -47 -6 -70 -18 -23 -12 -44 -19 -46 -17 -6
6 45 43 161 117 55 35 102 65 104 67 17 12 -25 13 -126 3 -65 -7 -127 -10
-138 -8 -24 5 116 52 188 63 26 4 47 12 47 19 0 6 -26 19 -58 28 -32 10 -80
26 -106 38 -38 16 -46 23 -37 33 9 11 25 11 88 1 43 -7 90 -15 106 -19 15 -4
27 -3 27 1 0 5 -50 61 -110 124 -101 106 -126 140 -100 140 5 0 65 -43 134
-94 68 -52 126 -93 129 -90 2 3 -3 22 -13 42 -70 148 -130 292 -130 314 0 20
1 20 21 -3 21 -24 96 -156 139 -244 23 -46 40 -68 47 -61 2 1 -6 90 -17 196
-22 217 -26 326 -9 297 9 -15 35 -136 54 -247 14 -87 27 -157 32 -180 6 -25 6
-25 14 5 5 17 22 113 39 215 35 213 47 263 60 255 6 -4 11 2 11 12 1 10 4 6 6
-9 2 -16 -7 -132 -22 -259z m748 -262 c-6 -11 -32 23 -32 43 -1 10 6 7 18 -10
11 -13 17 -28 14 -33z m-1968 -179 c-11 -7 -25 -16 -32 -22 -32 -28 -43 -36
-49 -36 -4 0 -20 -13 -35 -30 -21 -22 -29 -40 -29 -66 0 -20 -4 -53 -9 -73 -6
-20 -20 -106 -32 -191 -12 -85 -26 -162 -31 -170 -10 -18 -5 19 34 270 16 107
35 204 41 215 16 30 128 115 151 115 6 0 2 -6 -9 -12z m-25 -139 c0 -5 -7 -9
-15 -9 -15 0 -20 12 -9 23 8 8 24 -1 24 -14z m27 -89 c16 -41 12 -57 -18 -79
-38 -29 -50 -21 -13 8 27 21 27 23 16 67 -14 53 -15 92 0 49 5 -16 12 -37 15
-45z m-322 -12 c-26 -10 -131 -80 -145 -98 -3 -3 -22 -16 -42 -29 -21 -12 -47
-34 -58 -48 -11 -14 -20 -22 -20 -17 0 18 16 32 110 103 99 74 145 101 170
100 8 0 2 -5 -15 -11z m242 -95 c-3 -10 -5 -2 -5 17 0 19 2 27 5 18 2 -10 2
-26 0 -35z m791 -28 c-15 -14 -30 -25 -34 -25 -3 0 -19 -9 -35 -21 -16 -11
-34 -19 -39 -17 -10 3 109 88 125 88 5 0 -2 -11 -17 -25z m-1068 -15 c0 -5 -4
-10 -10 -10 -5 0 -10 5 -10 10 0 6 5 10 10 10 6 0 10 -4 10 -10z m400 0 c0 -5
-4 -10 -10 -10 -5 0 -10 5 -10 10 0 6 5 10 10 10 6 0 10 -4 10 -10z m-400 -65
c0 -42 -3 -47 -51 -85 -68 -53 -79 -52 -77 8 l1 47 4 -42 c2 -24 7 -43 10 -43
3 0 27 18 54 41 43 36 49 45 49 80 0 21 2 39 5 39 3 0 5 -20 5 -45z m266 9
c-4 -9 -9 -15 -11 -12 -3 3 -3 13 1 22 4 9 9 15 11 12 3 -3 3 -13 -1 -22z
m-376 -15 c-7 -11 -14 -18 -17 -15 -3 3 0 12 7 21 18 21 23 19 10 -6z m2080 3
c0 -4 -5 -13 -12 -20 -7 -7 -8 -12 -1 -12 7 0 7 -10 -1 -34 -7 -24 -21 -39
-45 -51 -20 -9 -52 -30 -72 -46 -20 -16 -40 -29 -43 -29 -4 0 -39 -20 -79 -44
-39 -24 -89 -53 -110 -65 -40 -22 -72 -28 -62 -11 3 6 15 10 26 10 26 0 24 18
-3 23 -13 2 -9 3 8 2 35 -4 60 8 50 23 -3 5 3 12 14 15 11 3 20 0 20 -5 0 -6
7 -5 15 2 13 11 13 15 3 21 -9 6 -4 9 15 9 21 0 27 5 28 23 1 16 2 18 6 5 2
-10 8 -18 13 -18 4 0 6 8 4 18 -8 28 19 53 68 63 33 6 58 19 85 45 21 21 37
42 35 47 -5 17 7 37 23 37 8 0 15 -4 15 -8z m-2191 -99 c0 -49 4 -134 7 -189
4 -65 3 -104 -4 -108 -7 -4 -10 31 -11 102 0 59 -4 149 -7 201 -5 62 -4 92 3
88 6 -4 11 -46 12 -94z m-159 13 c0 -2 -29 -25 -65 -51 -37 -26 -67 -55 -69
-68 -6 -26 -29 -173 -52 -337 -17 -114 -26 -140 -48 -140 -6 0 -5 4 3 9 9 6
21 56 32 137 11 71 26 175 34 232 8 56 20 110 26 120 19 30 139 115 139 98z
m2345 -48 c3 -7 7 -236 9 -508 2 -272 7 -625 11 -785 4 -159 5 -287 1 -284 -8
8 -14 61 -17 149 -1 36 -4 53 -6 38 -2 -16 -8 -28 -13 -28 -5 0 -11 -19 -13
-42 -2 -24 -3 -7 -3 37 2 169 -4 276 -14 270 -6 -3 -8 -16 -5 -28 4 -12 7
-119 8 -236 1 -118 -1 -199 -4 -180 -4 19 -10 144 -13 279 -8 280 -24 619 -36
765 l-8 100 2 -98 c1 -54 -1 -90 -5 -79 -9 25 -24 532 -15 532 4 0 11 -10 16
-22 7 -19 9 -16 9 18 1 28 6 44 17 48 10 4 13 13 9 25 -10 31 59 59 70 29z
m-2278 -50 c-3 -8 -6 -5 -6 6 -1 11 2 17 5 13 3 -3 4 -12 1 -19z m542 -118 c0
-77 -5 -143 -10 -146 -5 -3 -9 54 -9 134 0 123 3 152 17 152 2 0 3 -63 2 -140z
m1661 130 c0 -5 -4 -10 -10 -10 -5 0 -10 5 -10 10 0 6 5 10 10 10 6 0 10 -4
10 -10z m-2004 -37 c-10 -10 -19 5 -10 18 6 11 8 11 12 0 2 -7 1 -15 -2 -18z
m100 -12 c13 -30 12 -32 -1 -21 -8 7 -15 21 -15 32 0 15 -5 19 -20 15 -11 -3
-17 -1 -14 4 11 19 36 4 50 -30z m-396 3 c0 -3 -7 -12 -15 -20 -12 -13 -15
-13 -15 -1 0 7 3 17 7 20 8 8 23 9 23 1z m2237 0 c-3 -3 -12 -4 -19 -1 -8 3
-5 6 6 6 11 1 17 -2 13 -5z m-2215 -161 c-9 -7 -25 -18 -36 -24 -15 -9 -17 -8
-10 3 4 7 16 19 26 26 19 14 24 47 8 57 -5 3 -10 23 -9 43 0 34 2 32 19 -27
18 -61 18 -65 2 -78z m-277 87 c-9 -15 -65 -52 -65 -43 0 4 15 18 33 31 35 24
41 27 32 12z m-89 -171 c-24 -88 -46 -134 -46 -97 0 9 5 20 10 23 6 3 10 15
10 27 0 28 43 165 47 151 2 -6 -7 -53 -21 -104z m2263 107 c-2 -2 -15 -9 -29
-15 -24 -11 -24 -11 -6 3 16 13 49 24 35 12z m-1649 -20 c0 -2 -8 -10 -17 -17
-16 -13 -17 -12 -4 4 13 16 21 21 21 13z m-314 -53 c-10 -10 -19 5 -10 18 6
11 8 11 12 0 2 -7 1 -15 -2 -18z m316 -128 c-2 -76 -7 -135 -13 -135 -10 0
-13 253 -2 263 16 16 18 -1 15 -128z m-741 104 c-13 -11 -26 -17 -29 -14 -7 6
29 34 43 34 6 0 -1 -9 -14 -20z m2706 -41 c-2 -13 -4 -3 -4 22 0 25 2 35 4 23
2 -13 2 -33 0 -45z m-2500 20 c-3 -8 -6 -5 -6 6 -1 11 2 17 5 13 3 -3 4 -12 1
-19z m197 -54 c-15 -27 -15 -27 -10 -4 3 14 6 32 6 40 0 9 3 11 10 4 7 -7 5
-20 -6 -40z m-435 -233 c1 -79 -1 -142 -4 -139 -3 2 -7 94 -9 204 -3 124 -1
176 4 139 4 -33 8 -125 9 -204z m88 217 c-3 -8 -6 -5 -6 6 -1 11 2 17 5 13 3
-3 4 -12 1 -19z m13 -39 c0 -5 -4 -9 -10 -9 -5 0 -10 7 -10 16 0 8 5 12 10 9
6 -3 10 -10 10 -16z m-250 -4 c0 -2 -13 -11 -29 -20 -16 -8 -35 -20 -43 -27
-29 -28 -51 -43 -47 -31 9 27 119 99 119 78z m2897 -247 c-1 -46 -3 -9 -3 82
0 91 2 128 3 83 2 -46 2 -120 0 -165z m-2607 168 c0 -2 -9 -6 -20 -9 -11 -3
-18 -1 -14 4 5 9 34 13 34 5z m-450 -233 c-18 -120 -36 -222 -41 -227 -12 -13
-12 -2 6 90 8 44 21 132 30 198 16 126 25 170 32 162 2 -2 -10 -102 -27 -223z
m483 180 c8 -18 12 -33 8 -33 -9 0 -31 45 -31 62 0 15 4 10 23 -29z m237 -86
c0 -62 -5 -119 -10 -127 -7 -10 -10 28 -10 118 0 86 4 131 10 127 6 -4 10 -54
10 -118z m-1076 86 c-3 -16 -13 -44 -22 -63 -13 -27 -17 -31 -20 -16 -2 10 1
21 6 25 6 3 14 20 18 36 8 33 13 45 20 45 2 0 2 -12 -2 -27z m486 -2 c0 -5 -7
-11 -15 -15 -9 -3 -15 0 -15 9 0 8 7 15 15 15 8 0 15 -4 15 -9z m10 -153 c-13
-10 -25 -16 -28 -13 -3 3 4 12 15 20 18 13 20 20 12 47 -5 18 -9 44 -8 58 1
14 8 0 16 -34 16 -59 16 -60 -7 -78z m-579 -51 c-8 -8 -11 13 -10 84 l2 94 10
-83 c7 -61 7 -86 -2 -95z m536 126 c-3 -10 -5 -2 -5 17 0 19 2 27 5 18 2 -10
2 -26 0 -35z m-430 -5 c-3 -7 -5 -2 -5 12 0 14 2 19 5 13 2 -7 2 -19 0 -25z
m208 14 c-6 -5 -29 -23 -52 -41 -24 -18 -43 -41 -43 -52 0 -10 -4 -19 -10 -19
-26 0 5 52 55 89 35 27 75 45 50 23z m-438 -204 c-2 -29 -3 -8 -3 47 0 55 1
79 3 53 2 -26 2 -71 0 -100z m183 127 c-7 -9 -15 -13 -17 -11 -7 7 7 26 19 26
6 0 6 -6 -2 -15z m461 -48 c-8 -8 -11 -7 -11 4 0 20 13 34 18 19 3 -7 -1 -17
-7 -23z m-751 -12 c-7 -8 -17 -15 -22 -15 -6 0 -5 7 2 15 7 8 17 15 22 15 6 0
5 -7 -2 -15z m421 -106 c-12 -61 -23 -114 -26 -117 -14 -14 -14 11 -1 64 8 32
20 85 26 117 7 32 14 56 17 54 2 -3 -5 -56 -16 -118z m176 59 c-2 -13 -4 -3
-4 22 0 25 2 35 4 23 2 -13 2 -33 0 -45z m463 -58 c0 -73 -4 -120 -10 -120 -6
0 -10 44 -10 113 0 100 4 127 17 127 2 0 3 -54 3 -120z m-1100 35 c-4 -22 -11
-58 -15 -80 -6 -32 -9 -36 -15 -20 -4 10 0 42 8 70 8 27 16 56 19 64 8 31 11
3 3 -34z m3780 -10 c0 -31 -4 -45 -14 -45 -14 0 -15 29 -1 68 11 33 15 27 15
-23z m-3450 32 c0 -2 -20 -18 -45 -36 -25 -18 -45 -28 -45 -24 0 5 19 21 42
36 42 27 48 30 48 24z m219 -124 l-2 -128 -8 115 c-8 108 -7 140 6 140 3 0 4
-57 4 -127z m234 102 c-7 -21 -13 -19 -13 6 0 11 4 18 10 14 5 -3 7 -12 3 -20z
m2893 -50 l-27 -35 26 10 c17 7 32 7 43 0 10 -5 12 -10 5 -10 -7 0 -13 -7 -13
-15 0 -8 -4 -15 -10 -15 -5 0 -10 5 -10 10 0 7 -7 7 -20 0 -16 -9 -22 -8 -26
4 -5 12 -11 13 -25 5 -30 -16 -22 -2 27 47 52 52 70 52 30 -1z m-3771 16 c-3
-6 -11 -11 -17 -11 -6 0 -6 6 2 15 14 17 26 13 15 -4z m732 -28 c-3 -10 -5 -4
-5 12 0 17 2 24 5 18 2 -7 2 -21 0 -30z m-616 -56 c-13 -13 -15 31 -3 60 5 14
8 10 10 -16 2 -18 -1 -38 -7 -44z m216 -157 c0 -155 -1 -164 -7 -80 -10 128
-10 324 0 285 4 -16 7 -109 7 -205z m-360 77 c-2 -23 -3 -1 -3 48 0 50 1 68 3
42 2 -26 2 -67 0 -90z m3900 101 c-3 -8 -6 -5 -6 6 -1 11 2 17 5 13 3 -3 4
-12 1 -19z m-3622 -8 c-10 -11 -23 -20 -29 -20 -6 0 0 9 14 20 32 25 38 25 15
0z m-360 -8 c-40 -34 -97 -74 -101 -69 -6 5 87 76 101 77 6 0 6 -3 0 -8z m145
-52 c-4 -3 -10 -16 -13 -30 -2 -14 -5 2 -5 35 0 58 0 59 13 30 7 -16 9 -32 5
-35z m3750 35 c0 -8 -2 -15 -4 -15 -2 0 -12 -3 -21 -6 -15 -6 -15 -4 -4 15 16
25 29 27 29 6z m-3319 -120 c10 -33 19 -64 19 -70 -1 -20 -39 70 -40 92 0 12
-7 28 -15 37 -8 8 -15 27 -15 43 1 28 1 28 16 -7 9 -19 24 -62 35 -95z m-258
-90 c4 -123 3 -194 -3 -185 -10 18 -17 401 -6 389 2 -2 6 -94 9 -204z m3304
190 c-8 -20 8 -28 23 -10 27 32 29 13 3 -20 -15 -19 -35 -35 -42 -35 -12 0
-12 3 -3 12 20 20 13 31 -15 23 l-28 -6 25 25 c28 28 45 33 37 11z m166 -24
c-29 -25 -29 -34 1 -29 23 5 23 4 7 -23 -8 -15 -19 -25 -23 -23 -5 3 -6 9 -3
14 11 18 -16 20 -42 3 -28 -17 -28 -17 -13 2 24 34 71 75 83 75 7 -1 2 -9 -10
-19z m-2833 -93 c0 -127 -17 -167 -22 -52 -4 99 0 154 13 154 5 0 9 -45 9
-102z m-1011 -5 c-1 -78 -6 -74 -12 10 -2 31 0 57 5 57 4 0 8 -30 7 -67z m588
-45 c-2 -24 -4 -7 -4 37 0 44 2 63 4 43 2 -21 2 -57 0 -80z m-351 76 c-30 -21
-44 -16 -17 7 13 11 27 17 30 13 3 -3 -3 -12 -13 -20z m221 -16 c-3 -8 -6 -5
-6 6 -1 11 2 17 5 13 3 -3 4 -12 1 -19z m3110 4 c-23 -25 -21 -35 6 -26 22 6
22 6 -2 -15 -13 -11 -29 -21 -35 -20 -6 0 -6 3 2 6 6 2 12 9 12 15 0 6 -7 7
-16 4 -10 -4 -13 -2 -8 6 15 24 39 48 48 48 5 0 2 -8 -7 -18z m470 -34 c-2
-13 -4 -5 -4 17 -1 22 1 32 4 23 2 -10 2 -28 0 -40z m-4205 6 c-23 -19 -42
-44 -42 -54 0 -10 -4 -22 -10 -25 -13 -8 -13 11 1 38 16 29 66 77 81 77 6 0
-7 -16 -30 -36z m1052 -57 c-2 -131 -4 -146 -13 -122 -4 11 -7 61 -5 110 3
104 2 95 12 95 4 0 6 -37 6 -83z m3065 56 c-35 -41 -62 -63 -77 -63 -8 0 7 20
32 45 51 49 85 62 45 18z m-1141 -14 c7 -10 18 -19 24 -19 6 0 20 -7 30 -17
17 -15 18 -15 18 5 0 12 5 22 10 22 6 0 10 -20 10 -45 0 -43 1 -45 30 -45 17
0 30 5 30 10 0 6 7 10 15 10 8 0 15 -4 15 -10 0 -5 11 -10 25 -10 21 0 25 -5
25 -30 0 -28 2 -30 39 -30 29 0 41 5 44 18 2 9 3 5 1 -10 -2 -16 1 -28 6 -28
6 0 10 9 10 20 0 11 3 20 8 20 6 0 11 -100 15 -358 1 -45 -1 -82 -5 -82 -5 0
-9 17 -9 38 l-2 37 -7 -40 c-6 -32 -7 -35 -9 -12 -1 26 -2 27 -17 13 -18 -18
-34 -21 -34 -6 0 6 5 10 10 10 6 0 10 5 10 11 0 7 -10 9 -26 5 -19 -5 -24 -4
-18 6 5 7 9 18 10 23 0 6 2 15 2 21 3 16 38 54 51 54 19 0 12 14 -24 49 l-35
33 21 29 c11 16 16 29 10 29 -5 0 -13 -5 -16 -11 -5 -6 -13 -3 -22 10 -13 19
-12 24 16 58 36 44 32 59 -4 17 -23 -27 -25 -28 -25 -7 0 12 6 24 13 26 6 3 2
6 -10 6 -21 1 -23 -4 -23 -45 0 -27 6 -51 15 -60 17 -17 21 -39 5 -29 -5 3 -7
0 -4 -9 3 -9 -3 -20 -15 -28 -12 -7 -21 -18 -21 -25 0 -7 -6 -13 -14 -13 -7 0
-22 -12 -34 -27 -12 -16 -28 -37 -36 -48 -16 -20 -16 -20 -22 2 -3 12 -12 19
-19 17 -7 -3 -15 4 -18 15 -3 14 0 21 9 21 8 0 14 6 14 13 0 11 43 37 64 37 5
0 1 -10 -10 -21 -19 -21 -19 -21 0 -18 10 2 24 13 30 24 6 11 16 23 21 28 6 4
1 6 -10 5 -53 -4 -56 -1 -33 42 12 22 25 40 30 40 4 0 8 18 8 40 0 22 -4 40
-10 40 -5 0 -10 -12 -10 -26 0 -26 -1 -27 -54 -21 -43 4 -58 2 -68 -10 -10
-13 -10 -17 0 -20 7 -3 12 -21 12 -44 0 -30 -4 -39 -17 -40 -17 -1 -17 -2 0
-6 23 -6 21 -20 -5 -34 -30 -16 -40 -32 -25 -42 8 -6 5 -7 -7 -3 -21 7 -66
-31 -59 -50 5 -13 -5 -28 -41 -64 -21 -21 -46 -27 -46 -10 0 6 5 10 10 10 6 0
10 5 10 11 0 6 -7 9 -15 5 -11 -4 -15 1 -15 19 0 22 -4 25 -40 25 -33 0 -40 3
-40 20 0 17 -7 20 -38 20 -30 0 -46 -7 -68 -30 -16 -16 -34 -30 -41 -30 -6 0
-14 -12 -16 -27 -2 -16 -5 6 -6 47 -4 107 -19 146 -20 53 -2 -119 -18 -83 -25
55 -3 70 -8 159 -10 197 -2 50 -1 59 4 30 6 -33 7 -25 9 45 3 109 10 92 20
-51 l8 -114 3 125 c2 92 5 113 10 80 4 -25 8 -35 8 -24 2 17 11 23 38 28 19 4
38 14 41 22 3 7 18 14 34 14 16 0 33 8 41 19 17 24 65 30 168 24 58 -4 78 -9
88 -24z m-2638 13 c0 -4 -15 -16 -32 -27 -18 -10 -41 -27 -50 -38 -10 -11 -18
-15 -18 -9 0 6 21 27 46 47 50 37 54 39 54 27z m3455 -12 c-3 -5 -13 -10 -21
-10 -8 0 -13 -3 -13 -7 3 -19 -2 -33 -11 -33 -15 0 -12 21 7 42 17 19 49 26
38 8z m-4223 -40 c13 -25 18 -59 18 -122 l0 -87 -64 -45 c-35 -26 -66 -46 -70
-46 -3 0 -6 21 -6 48 l-1 47 -14 -33 c-8 -18 -32 -85 -54 -150 -22 -64 -67
-196 -101 -292 -59 -167 -126 -365 -156 -458 -9 -30 -10 -41 -2 -36 7 4 3 -6
-9 -22 -11 -16 -37 -81 -58 -144 -21 -63 -41 -119 -45 -123 -4 -5 -25 0 -46
10 -55 26 -56 62 -5 207 38 109 40 119 43 255 3 155 18 196 18 49 0 -60 3 -89
10 -82 5 5 23 50 40 99 17 50 42 118 56 152 27 68 31 91 9 53 -18 -32 -19 -5
0 35 11 24 14 26 15 10 1 -13 6 -7 16 19 15 42 11 65 -5 25 -11 -27 -14 -16
-5 18 3 12 12 19 19 17 8 -3 14 5 18 23 11 65 151 452 180 502 38 64 106 113
152 109 23 -2 34 -11 47 -38z m4570 23 c-10 -4 -10 -8 -1 -20 8 -9 9 -17 3
-21 -6 -4 -13 -14 -16 -23 -4 -9 -16 -19 -28 -22 -21 -5 -21 -4 5 23 32 33 29
48 -5 30 -19 -10 -21 -10 -13 5 11 18 55 44 63 37 3 -3 -1 -7 -8 -9z m-524
-13 c-15 -24 -28 -26 -28 -4 0 8 5 12 10 9 6 -3 10 -1 10 4 0 6 5 11 10 11 6
0 5 -8 -2 -20z m-3111 -52 c-2 -13 -4 -3 -4 22 0 25 2 35 4 23 2 -13 2 -33 0
-45z m3700 25 c-3 -10 -5 -4 -5 12 0 17 2 24 5 18 2 -7 2 -21 0 -30z m-557 18
c0 -5 -7 -12 -16 -15 -14 -5 -15 -4 -4 9 14 17 20 19 20 6z m-3630 -17 c0 -2
-7 -4 -15 -4 -8 0 -15 4 -15 10 0 5 7 7 15 4 8 -4 15 -8 15 -10z m400 -37 c0
-52 -1 -54 -45 -85 -39 -27 -81 -45 -62 -26 3 3 8 5 11 5 4 -1 12 3 19 9 6 6
24 19 39 30 22 17 27 28 26 63 0 23 -5 45 -12 49 -7 5 -5 8 7 8 14 0 17 -9 17
-53z m3160 33 c0 -5 -5 -10 -11 -10 -5 0 -7 5 -4 10 3 6 8 10 11 10 2 0 4 -4
4 -10z m65 -29 c-3 -6 -11 -11 -16 -11 -5 0 -4 6 3 14 14 16 24 13 13 -3z
m195 -16 c-7 -8 -16 -12 -21 -10 -4 3 -1 15 9 26 9 11 18 15 20 9 2 -6 -2 -17
-8 -25z m-3886 9 c3 -8 2 -12 -4 -9 -6 3 -10 10 -10 16 0 14 7 11 14 -7z m284
-176 l-2 -183 -5 148 c-5 116 -9 150 -21 157 -10 7 -11 10 -2 10 6 0 12 11 12
25 0 14 5 25 10 25 6 0 9 -66 8 -182z m85 162 c-3 -12 -8 -19 -11 -16 -5 6 5
36 12 36 2 0 2 -9 -1 -20z m3570 3 c-11 -10 -22 -25 -25 -34 -6 -16 -48 -34
-48 -21 1 11 46 59 61 65 27 11 32 7 12 -10z m149 10 c-7 -3 -19 -18 -27 -34
-9 -16 -22 -29 -29 -29 -8 0 -16 -6 -19 -12 -2 -7 -8 -10 -12 -6 -10 9 70 88
88 87 9 0 9 -2 -1 -6z m-4002 -11 c0 -13 -40 -52 -53 -52 -7 0 -1 9 13 20 21
17 23 21 10 30 -12 8 -11 10 8 10 12 0 22 -4 22 -8z m3336 -7 c-7 -20 13 -19
36 2 10 9 18 12 18 6 0 -13 -39 -65 -57 -76 -7 -4 -14 -22 -14 -40 -1 -18 -5
-5 -9 28 -7 71 -3 95 17 95 9 0 13 -6 9 -15z m-3226 -21 c-19 -8 -43 -22 -53
-31 -14 -13 -17 -14 -12 -2 7 20 55 48 80 48 14 0 9 -5 -15 -15z m3376 -19
c-43 -38 -56 -45 -35 -18 21 26 53 52 64 53 6 0 -8 -16 -29 -35z m-3691 7 c6
-4 17 -16 25 -27 11 -15 8 -14 -12 4 -37 33 -72 24 -155 -39 -36 -27 -71 -50
-77 -50 -15 0 11 22 87 74 64 43 108 56 132 38z m4190 -29 c-12 -17 -20 -23
-23 -15 -4 14 28 56 36 47 3 -2 -3 -17 -13 -32z m-3544 -14 c-5 -13 -10 -19
-10 -12 -1 15 10 45 15 40 3 -2 0 -15 -5 -28z m3270 8 c-10 -9 -11 -8 -5 6 3
10 9 15 12 12 3 -3 0 -11 -7 -18z m-3686 -7 c-3 -5 -27 -24 -53 -42 -26 -17
-51 -36 -55 -42 -6 -7 -7 -6 -5 2 2 8 28 31 58 52 62 43 63 44 55 30z m675
-85 c0 -52 -4 -95 -8 -95 -9 0 -13 169 -5 183 10 18 13 1 13 -88z m2793 75
c-3 -12 -8 -19 -11 -16 -5 6 5 36 12 36 2 0 2 -9 -1 -20z m680 -51 c-4 -4 -7
5 -7 22 2 48 7 56 11 20 3 -18 1 -37 -4 -42z m-443 31 c-11 -20 -10 -21 9 -11
33 18 42 12 18 -12 -12 -13 -25 -22 -29 -20 -4 2 -5 -3 -2 -11 4 -10 1 -16 -9
-16 -10 0 -14 9 -13 28 3 30 25 77 33 69 2 -3 -1 -15 -7 -27z m350 -20 c-18
-17 -37 -29 -42 -28 -14 5 42 58 59 58 9 0 3 -12 -17 -30z m-3990 -60 c0 -49
-11 -69 -51 -90 -13 -7 -19 -7 -19 0 0 5 4 10 10 10 23 0 50 45 50 83 0 32 -3
38 -16 33 -14 -5 -15 -4 -4 9 19 23 30 8 30 -45z m4010 30 c-8 -5 -11 -12 -7
-16 3 -4 13 -1 22 6 19 16 20 3 0 -16 -8 -8 -19 -23 -24 -32 -5 -9 -13 -13
-17 -9 -4 4 -2 13 4 19 16 16 15 28 -3 28 -8 0 -15 -5 -15 -12 0 -6 -3 -8 -7
-4 -5 4 5 18 22 31 16 13 32 22 34 19 3 -3 -1 -9 -9 -14z m-3813 -82 c-2 -18
-4 -4 -4 32 0 36 2 50 4 33 2 -18 2 -48 0 -65z m63 82 c0 -5 -5 -10 -11 -10
-5 0 -7 5 -4 10 3 6 8 10 11 10 2 0 4 -4 4 -10z m220 -184 c-7 -7 -10 19 -10
85 0 124 14 138 18 18 2 -54 -1 -96 -8 -103z m2758 127 c3 24 22 22 22 -3 0
-17 4 -19 26 -14 29 7 29 6 -1 -43 -11 -18 -28 -33 -37 -33 -13 0 -18 -11 -21
-52 -2 -29 -3 8 -4 82 0 86 3 119 7 90 4 -25 8 -37 8 -27z m302 63 c0 -3 -8
-12 -17 -22 -14 -13 -15 -18 -5 -22 10 -3 9 -9 -4 -23 -9 -10 -22 -19 -27 -19
-6 0 -2 7 9 15 16 12 17 16 5 24 -12 8 -11 13 10 30 25 22 29 24 29 17z m-70
-21 c-7 -8 -17 -15 -22 -15 -6 0 -5 7 2 15 7 8 17 15 22 15 6 0 5 -7 -2 -15z
m617 -7 c-3 -8 -6 -5 -6 6 -1 11 2 17 5 13 3 -3 4 -12 1 -19z m-1160 -10 c-3
-8 -6 -5 -6 6 -1 11 2 17 5 13 3 -3 4 -12 1 -19z m-3099 -213 c0 -53 -2 -73
-8 -60 -5 11 -8 81 -8 155 1 120 2 127 8 60 4 -41 8 -111 8 -155z m92 211 c0
-3 -4 -8 -10 -11 -5 -3 -10 -1 -10 4 0 6 5 11 10 11 6 0 10 -2 10 -4z m3804
-23 c-6 -22 -4 -25 10 -20 9 4 24 10 33 14 14 6 14 2 -4 -21 -27 -34 -72 -70
-79 -63 -3 3 4 14 15 24 28 23 29 48 2 33 -32 -16 -34 -12 -6 15 14 14 25 30
25 35 0 6 2 10 5 10 3 0 2 -12 -1 -27z m-4314 14 c0 -2 -10 -12 -22 -23 l-23
-19 19 23 c18 21 26 27 26 19z m4232 -57 c3 -16 1 -35 -4 -42 -4 -8 -8 4 -8
30 0 49 6 55 12 12z m252 3 c-13 -14 -27 -23 -31 -20 -8 9 27 46 44 46 7 1 1
-11 -13 -26z m290 -85 c-3 -62 -10 -122 -14 -133 -5 -11 -11 -31 -13 -45 -2
-14 -4 11 -4 55 0 67 1 73 7 35 l7 -45 1 61 c2 72 13 184 19 184 2 0 1 -51 -3
-112z m-4824 95 c0 -5 -16 -18 -35 -31 -41 -26 -47 -13 -7 17 29 22 42 26 42
14z m210 -28 c-7 -8 -20 -15 -29 -15 -12 0 -10 5 9 20 28 21 39 18 20 -5z
m3835 -1 c-14 -27 -53 -60 -61 -51 -5 5 13 30 44 63 22 23 32 16 17 -12z
m-3485 -25 c0 -5 -4 -9 -10 -9 -5 0 -10 7 -10 16 0 8 5 12 10 9 6 -3 10 -10
10 -16z m3983 -3 c-10 -13 -20 -20 -21 -15 -5 12 17 39 30 39 5 0 1 -11 -9
-24z m-492 -22 c-11 -15 -21 -21 -21 -14 0 15 31 52 38 46 2 -3 -5 -17 -17
-32z m439 26 c0 -5 -5 -10 -11 -10 -5 0 -7 5 -4 10 3 6 8 10 11 10 2 0 4 -4 4
-10z m-803 -16 c-3 -3 -12 -4 -19 -1 -8 3 -5 6 6 6 11 1 17 -2 13 -5z m605
-22 c-23 -7 -12 -22 13 -16 27 7 35 -10 10 -20 -23 -9 -18 -32 10 -44 14 -7
46 -12 70 -12 27 0 45 -5 45 -12 0 -6 8 -3 20 7 19 17 20 17 29 -9 6 -14 15
-26 21 -26 6 0 10 -27 10 -64 0 -59 -2 -64 -23 -70 -13 -3 -35 -17 -49 -31
-27 -27 -88 -45 -88 -26 0 6 -17 11 -41 11 l-40 0 2 90 c1 50 -1 93 -5 97 -3
3 -1 12 6 20 16 19 1 30 -22 15 -24 -15 -30 -15 -30 -2 0 6 6 10 14 10 16 0
28 37 15 46 -5 3 -9 0 -9 -5 0 -27 -15 -7 -17 22 -2 30 -1 31 13 12 13 -17 16
-18 24 -5 5 8 10 19 10 23 0 5 5 5 12 1 9 -6 9 -9 0 -12z m-4132 -13 c-7 -11
-14 -18 -17 -15 -3 3 0 12 7 21 18 21 23 19 10 -6z m143 6 c-3 -9 -8 -14 -10
-11 -3 3 -2 9 2 15 9 16 15 13 8 -4z m3400 -31 c-17 -26 -17 -28 0 -21 13 5
17 1 17 -19 0 -29 -26 -84 -40 -84 -16 0 -23 22 -9 31 12 7 11 9 -1 9 -17 -1
-38 -16 -59 -43 -12 -15 -12 -20 5 -33 18 -15 18 -15 -8 -10 -17 4 -32 0 -43
-10 -9 -9 -23 -13 -33 -9 -16 6 -15 7 2 17 11 6 35 26 53 45 19 18 38 33 42
33 5 0 11 6 14 14 4 10 0 12 -14 9 -10 -3 -19 -2 -19 1 0 14 64 86 76 86 6 0
15 8 19 18 5 11 9 13 12 5 2 -6 -4 -24 -14 -39z m-3814 -13 c-7 -23 -14 -39
-16 -37 -3 2 1 23 8 45 7 23 14 39 16 37 3 -2 -1 -23 -8 -45z m3748 27 c-3 -8
-6 -5 -6 6 -1 11 2 17 5 13 3 -3 4 -12 1 -19z m-3307 -496 c-6 -12 -9 66 -10
239 0 141 3 259 8 263 11 12 14 -482 2 -502z m4540 476 c0 -5 -4 -8 -10 -8 -5
0 -10 10 -10 23 0 18 2 19 10 7 5 -8 10 -18 10 -22z m-4319 -30 c-3 -62 -11
-60 -11 2 0 29 3 50 7 46 4 -3 6 -25 4 -48z m3580 20 c-17 -17 -33 -29 -36
-27 -6 7 43 59 57 59 6 0 -4 -14 -21 -32z m-3301 -62 c0 -47 -4 -88 -10 -91
-6 -4 -10 27 -10 84 0 54 4 91 10 91 6 0 10 -35 10 -84z m-717 -208 c4 -213 3
-286 -6 -295 -7 -7 -31 -16 -54 -21 -77 -17 -77 -18 -86 254 l-7 237 22 25
c23 24 106 82 118 82 4 0 10 -127 13 -282z m26 199 c-1 -81 -6 -73 -12 20 -2
34 0 60 5 57 4 -3 7 -38 7 -77z m2268 11 c-2 -13 -4 -3 -4 22 0 25 2 35 4 23
2 -13 2 -33 0 -45z m859 47 c-3 -8 -1 -15 4 -15 6 0 10 7 10 15 0 19 16 20 23
1 3 -8 -1 -17 -9 -20 -8 -3 -14 -15 -14 -26 0 -23 -10 -26 -28 -8 -8 8 -12 9
-12 1 0 -6 6 -13 13 -16 9 -3 7 -10 -7 -23 -18 -19 -18 -18 -12 3 5 16 2 26
-13 35 -25 16 -26 26 -4 50 20 22 58 25 49 3z m899 -19 c18 -17 7 -30 -13 -14
-11 10 -17 8 -28 -7 -17 -23 -18 -12 -2 15 15 24 25 25 43 6z m702 -93 c-2
-21 -4 -6 -4 32 0 39 2 55 4 38 2 -18 2 -50 0 -70z m-967 51 c0 -22 2 -24 15
-14 8 6 20 10 27 8 8 -3 0 -18 -24 -42 -20 -20 -39 -49 -41 -64 -2 -15 -5 7
-6 49 0 42 2 79 6 82 13 14 23 6 23 -19z m-3960 2 c0 -2 -7 -7 -16 -10 -8 -3
-12 -2 -9 4 6 10 25 14 25 6z m4204 -10 c-10 -8 -21 -12 -24 -10 -5 6 21 24
34 24 6 0 1 -6 -10 -14z m-1104 -7 c0 -6 9 -9 20 -6 29 7 25 -11 -10 -44 -35
-34 -56 -39 -41 -11 7 13 7 22 -1 30 -8 8 -8 15 2 27 15 18 30 20 30 4z m420
2 c0 -5 -6 -12 -12 -14 -9 -4 -10 -6 -1 -6 6 -1 19 6 27 15 9 8 20 14 26 12
15 -5 -52 -76 -80 -84 l-25 -7 25 21 c20 18 22 23 11 31 -17 11 -7 41 14 41 8
0 15 -4 15 -9z m387 -48 c0 -27 -2 -38 -4 -25 -5 25 -23 31 -23 7 0 -8 -4 -15
-10 -15 -5 0 -10 -7 -10 -16 0 -8 5 -12 10 -9 6 3 10 -4 10 -17 l1 -23 14 25
14 25 1 -27 c0 -16 -4 -28 -10 -28 -6 0 -11 -35 -12 -82 l-2 -83 -5 80 c-5 60
-8 74 -14 56 -7 -16 -12 -20 -20 -12 -7 7 -6 16 6 29 16 18 16 19 -4 18 -12
-1 -26 6 -32 15 -8 14 -4 23 21 49 18 17 32 36 32 41 0 5 7 9 15 9 8 0 15 7
15 15 0 8 2 15 4 15 2 0 4 -21 3 -47z m-4187 33 c0 -2 -26 -23 -57 -47 -32
-24 -60 -46 -63 -49 -16 -17 -72 -51 -76 -47 -5 4 182 147 192 147 2 0 4 -2 4
-4z m809 -28 c0 -31 -1 -31 -10 -10 -5 13 -7 28 -3 33 10 16 14 9 13 -23z
m2721 24 c0 -14 -62 -72 -71 -66 -9 5 0 19 35 54 21 21 36 26 36 12z m870 -2
c0 -5 -4 -10 -9 -10 -5 0 -11 -9 -14 -20 -3 -11 -13 -20 -22 -20 -17 0 -14 11
13 43 17 19 32 22 32 7z m-1833 -42 c-3 -8 -6 -5 -6 6 -1 11 2 17 5 13 3 -3 4
-12 1 -19z m1830 -15 c-15 -16 -17 -16 -17 -1 0 9 6 18 13 21 20 7 22 -2 4
-20z m-857 12 c0 -3 -9 -15 -20 -27 -20 -22 -26 -15 -14 16 6 15 34 23 34 11z
m-803 -67 c-2 -13 -4 -3 -4 22 0 25 2 35 4 23 2 -13 2 -33 0 -45z m549 26
c-21 -31 -16 -40 13 -23 28 18 37 5 17 -26 -18 -28 -42 -34 -32 -9 5 12 2 15
-12 12 -16 -5 -19 -1 -16 25 2 16 12 36 21 43 25 18 29 9 9 -22z m427 29 c-20
-7 -15 -29 10 -46 l22 -15 -32 -33 c-24 -25 -33 -29 -33 -17 0 9 10 24 23 33
l22 16 -26 -6 c-20 -5 -28 -2 -33 12 -4 10 -2 19 3 21 6 2 11 10 11 17 0 13
15 23 35 23 6 0 4 -2 -2 -5z m227 -7 c0 -8 -4 -18 -10 -21 -5 -3 -10 3 -10 14
0 12 5 21 10 21 6 0 10 -6 10 -14z m670 -1 c0 -8 -4 -15 -9 -15 -5 0 -11 7
-15 15 -3 9 0 15 9 15 8 0 15 -7 15 -15z m527 -107 c-2 -24 -4 -5 -4 42 0 47
2 66 4 43 2 -24 2 -62 0 -85z m20 75 c-3 -10 -5 -2 -5 17 0 19 2 27 5 18 2
-10 2 -26 0 -35z m-4278 -45 c0 -40 -4 -80 -9 -88 -7 -10 -10 10 -10 66 0 68
4 94 15 94 2 0 3 -33 4 -72z m3157 17 c-14 -14 -30 -25 -36 -25 -5 0 -10 -5
-10 -12 0 -6 -2 -9 -5 -6 -11 11 12 50 40 68 38 25 45 9 11 -25z m-1459 -117
c-2 -29 -3 -6 -3 52 0 58 1 81 3 53 2 -29 2 -77 0 -105z m1183 142 c0 -5 -4
-10 -10 -10 -5 0 -10 5 -10 10 0 6 5 10 10 10 6 0 10 -4 10 -10z m-6875 -19
c-3 -6 -11 -11 -16 -11 -5 0 -4 6 3 14 14 16 24 13 13 -3z m6319 4 c-7 -16
-24 -21 -24 -6 0 8 7 13 27 20 1 1 0 -6 -3 -14z m231 -5 c3 -5 1 -10 -4 -10
-6 0 -11 5 -11 10 0 6 2 10 4 10 3 0 8 -4 11 -10z m165 1 c0 -5 -6 -11 -12
-14 -9 -3 -6 -7 6 -13 13 -5 21 -3 24 4 2 7 8 12 12 12 5 0 3 -12 -5 -27 -17
-33 -58 -40 -50 -9 3 12 2 15 -1 9 -5 -12 -34 -19 -34 -8 0 3 10 16 22 30 22
26 38 32 38 16z m-397 -27 c14 -5 17 -13 12 -32 -7 -29 -33 -57 -43 -47 -4 4
-1 10 6 12 6 3 12 13 12 24 0 12 -5 16 -14 13 -8 -3 -17 -1 -20 4 -9 15 5 44
18 37 6 -3 19 -8 29 -11z m861 0 c4 -9 2 -13 -5 -8 -7 4 -9 0 -5 -13 4 -12 -1
-28 -13 -41 -22 -26 -36 -29 -27 -5 4 9 1 20 -6 24 -9 6 -4 15 17 33 35 31 31
30 39 10z m-7204 -4 c0 -5 -5 -10 -11 -10 -5 0 -7 5 -4 10 3 6 8 10 11 10 2 0
4 -4 4 -10z m7357 -22 c-3 -7 -5 -2 -5 12 0 14 2 19 5 13 2 -7 2 -19 0 -25z
m990 -25 c-3 -10 -5 -4 -5 12 0 17 2 24 5 18 2 -7 2 -21 0 -30z m-5407 -3 c0
-11 -2 -20 -4 -20 -2 0 -6 9 -9 20 -3 11 -1 20 4 20 5 0 9 -9 9 -20z m2200 10
c0 -5 -2 -10 -4 -10 -3 0 -8 5 -11 10 -3 6 -1 10 4 10 6 0 11 -4 11 -10z
m1414 -37 c-10 -16 -30 -37 -44 -45 -26 -15 -27 -15 -23 3 3 11 12 19 19 19 8
0 14 7 14 16 0 9 9 18 20 21 11 3 20 10 20 16 0 6 2 8 5 5 3 -3 -2 -19 -11
-35z m381 16 c-4 -5 -13 -9 -21 -9 -12 0 -12 2 -2 14 14 15 32 11 23 -5z
m-3561 -26 c-10 -15 -21 -30 -24 -33 -3 -3 -52 -75 -110 -161 -106 -158 -152
-213 -66 -78 74 116 209 309 214 305 2 -3 -5 -17 -14 -33z m1806 -133 c6 0 11
37 12 83 1 66 2 73 7 37 6 -43 7 -44 19 -22 10 18 20 23 38 19 13 -2 24 -1 24
3 0 19 148 29 160 10 3 -4 22 -13 43 -21 l37 -13 0 -61 c0 -53 -3 -63 -29 -88
-18 -17 -40 -27 -59 -27 -17 0 -32 -6 -36 -15 -4 -11 -21 -15 -64 -15 -33 0
-76 -7 -96 -15 -34 -14 -36 -14 -36 4 0 14 -5 18 -19 14 -31 -8 -39 65 -23
212 l7 70 3 -87 c1 -49 7 -88 12 -88z m1340 161 c0 -13 -29 -35 -37 -28 -7 8
15 37 28 37 5 0 9 -4 9 -9z m-360 -8 c0 -14 -35 -53 -47 -53 -13 0 -13 2 -2
17 11 13 11 17 2 20 -24 8 -13 20 17 20 17 0 30 -2 30 -4z m108 -13 c-7 -11
-16 -20 -19 -20 -4 0 -9 -9 -12 -20 -3 -13 -14 -20 -28 -20 -22 0 -22 0 -3 22
44 51 86 77 62 38z m393 -4 l-23 -24 25 -4 25 -3 -25 -30 c-22 -27 -25 -27
-20 -8 4 20 2 22 -19 17 -33 -8 -30 8 7 45 36 36 63 42 30 7z m69 9 c-7 -9
-15 -13 -17 -11 -7 7 7 26 19 26 6 0 6 -6 -2 -15z m228 -14 c-25 -33 -61 -45
-37 -13 17 23 41 42 52 42 5 0 -2 -13 -15 -29z m1269 -23 c-2 -13 -4 -5 -4 17
-1 22 1 32 4 23 2 -10 2 -28 0 -40z m-4800 10 c-3 -7 -5 -2 -5 12 0 14 2 19 5
13 2 -7 2 -19 0 -25z m-3516 -7 c-6 -11 -21 -26 -34 -32 -19 -10 -18 -8 6 16
15 15 27 32 27 38 0 6 3 8 6 5 3 -4 1 -16 -5 -27z m7169 9 c-9 -16 -8 -20 5
-20 8 0 15 -4 15 -10 0 -5 -18 -10 -41 -10 l-40 0 21 30 c25 35 58 43 40 10z
m1277 -27 c-3 -10 -5 -4 -5 12 0 17 2 24 5 18 2 -7 2 -21 0 -30z m-2083 3 c-6
-17 -34 -30 -34 -16 0 5 8 14 18 19 22 13 22 13 16 -3z m-2847 -18 c-3 -8 -6
-5 -6 6 -1 11 2 17 5 13 3 -3 4 -12 1 -19z m3425 4 c-18 -6 -15 -23 10 -49 21
-23 21 -23 2 -38 -28 -21 -35 -18 -28 12 6 23 4 25 -15 20 -14 -3 -21 -1 -21
9 0 8 5 14 10 14 6 0 10 6 10 13 0 19 21 37 34 30 6 -4 6 -8 -2 -11z m-1715
-64 c-2 -13 -4 -3 -4 22 0 25 2 35 4 23 2 -13 2 -33 0 -45z m1299 48 c7 -8 18
-16 24 -18 13 -4 0 -48 -15 -48 -7 0 -18 7 -25 15 -7 8 -16 13 -20 10 -5 -3
-11 -1 -15 5 -3 5 -1 10 4 10 6 0 11 9 11 20 0 23 16 26 36 6z m931 -108 c-2
-24 -4 -5 -4 42 0 47 2 66 4 43 2 -24 2 -62 0 -85z m920 60 c-2 -13 -4 -3 -4
22 0 25 2 35 4 23 2 -13 2 -33 0 -45z m-2559 -193 c0 -66 -1 -68 -9 -25 -4 25
-7 97 -7 160 l1 115 8 -90 c4 -49 7 -121 7 -160z m336 215 c9 0 16 -4 16 -8 0
-14 -39 -46 -47 -39 -3 4 -1 7 5 7 14 0 3 32 -15 43 -7 5 -10 13 -7 19 5 7 11
5 19 -5 7 -10 20 -17 29 -17z m679 -16 c-18 -27 -17 -28 5 -22 28 8 27 6 -2
-19 -24 -21 -25 -21 -41 -3 -16 18 -16 21 16 49 39 36 48 34 22 -5z m-6903 5
c-12 -22 -47 -59 -56 -59 -5 0 58 79 64 80 1 0 -2 -9 -8 -21z m6129 -27 c-6
-3 -6 -8 1 -17 7 -9 6 -16 -5 -25 -13 -11 -14 -10 -10 3 4 9 -3 22 -17 32 -15
11 -19 19 -10 22 6 3 12 12 12 21 0 13 5 11 20 -8 10 -14 15 -27 9 -28z m371
29 c0 -10 -6 -21 -13 -24 -10 -4 -13 2 -9 19 5 28 22 32 22 5z m36 -32 c3 -6
3 -14 -2 -18 -5 -3 -15 -18 -23 -33 -8 -16 -21 -28 -28 -28 -10 0 -11 5 -4 18
6 10 7 29 4 42 -5 19 -3 22 11 17 10 -4 15 -3 11 3 -3 6 1 10 9 10 8 0 18 -5
22 -11z m-66 -14 c0 -8 -7 -15 -15 -15 -8 0 -15 7 -15 15 0 8 7 15 15 15 8 0
15 -7 15 -15z m118 3 c-6 -18 -28 -21 -28 -4 0 9 7 16 16 16 9 0 14 -5 12 -12z
m128 -70 c-9 -5 -16 -18 -16 -28 0 -13 -5 -17 -15 -14 -8 4 -17 -1 -21 -10
-10 -26 -21 -9 -19 30 2 21 11 45 24 57 l21 21 0 -28 c0 -24 2 -27 15 -16 8 7
16 27 17 44 1 27 2 25 5 -8 3 -29 0 -42 -11 -48z m212 42 c-7 -11 -19 -20 -27
-20 -11 0 -10 5 4 20 10 11 22 20 27 20 4 0 3 -9 -4 -20z m-7009 -22 c-14 -25
-34 -48 -44 -48 -3 0 7 16 22 35 32 40 39 44 22 13z m6401 -11 c0 -16 -35 -1
-38 16 -3 16 -1 17 17 5 12 -7 21 -17 21 -21z m112 -41 c-3 -31 -9 -46 -18
-46 -8 0 -14 7 -14 16 0 10 -6 14 -15 11 -8 -4 -17 -2 -20 4 -7 10 53 71 64
65 3 -2 5 -25 3 -50z m418 46 c0 -4 -9 -13 -20 -20 -22 -14 -17 -37 6 -28 11
4 12 2 4 -14 -14 -26 -31 -35 -40 -20 -6 9 -12 9 -28 -1 -12 -7 -24 -10 -27
-7 -8 8 12 48 24 48 4 0 21 11 37 25 29 25 44 31 44 17z m-560 -22 c0 -5 -4
-10 -10 -10 -5 0 -10 5 -10 10 0 6 5 10 10 10 6 0 10 -4 10 -10z m-243 -32
c-3 -7 -5 -2 -5 12 0 14 2 19 5 13 2 -7 2 -19 0 -25z m573 -8 c0 -11 5 -20 11
-20 5 0 7 -4 4 -10 -3 -6 1 -7 9 -4 13 5 16 -2 16 -35 0 -23 5 -41 10 -41 6 0
10 20 10 44 0 25 3 47 8 49 4 3 7 -61 7 -141 0 -106 -4 -147 -13 -150 -15 -5
-32 39 -32 84 0 27 -4 34 -20 34 -17 0 -20 7 -20 40 0 35 -3 40 -23 40 -22 0
-24 5 -25 48 0 30 5 53 15 65 21 23 43 22 43 -3z m-820 2 c0 -4 -5 -13 -11
-19 -8 -8 -5 -13 10 -18 26 -8 27 -26 1 -43 -11 -7 -20 -8 -20 -3 0 5 6 11 13
14 16 5 -9 37 -31 37 -13 0 -12 3 3 20 19 21 35 26 35 12z m2214 -17 c3 -8 1
-15 -4 -15 -6 0 -10 7 -10 15 0 8 2 15 4 15 2 0 6 -7 10 -15z m-8175 -17 c-14
-27 -59 -76 -59 -65 0 8 62 86 68 87 1 0 -3 -10 -9 -22z m8161 -8 c7 0 11 -2
8 -5 -3 -4 -17 -3 -31 0 -18 5 -24 12 -20 22 6 14 8 14 18 -1 7 -9 18 -16 25
-16z m-2165 10 c3 -6 -1 -7 -9 -4 -18 7 -21 14 -7 14 6 0 13 -4 16 -10z m392
-15 c23 -23 12 -25 -22 -4 -22 14 -25 19 -12 19 10 0 25 -7 34 -15z m313 -34
c0 -42 -4 -53 -27 -70 l-26 -21 -15 30 c-8 16 -21 30 -28 30 -8 0 -14 5 -14
10 0 6 4 10 9 10 6 0 18 14 28 30 13 22 25 30 45 30 27 0 28 -2 28 -49z m-127
4 c-7 -21 -13 -19 -13 6 0 11 4 18 10 14 5 -3 7 -12 3 -20z m-2970 0 c-3 -9
-8 -14 -10 -11 -3 3 -2 9 2 15 9 16 15 13 8 -4z m2767 -5 c0 -5 -5 -10 -11
-10 -5 0 -7 5 -4 10 3 6 8 10 11 10 2 0 4 -4 4 -10z m-80 -10 c0 -5 -2 -10 -4
-10 -3 0 -8 5 -11 10 -3 6 -1 10 4 10 6 0 11 -4 11 -10z m164 -47 c-7 -26 -6
-27 9 -11 9 9 17 21 17 27 0 6 5 11 11 11 6 0 9 -3 7 -7 -3 -5 -10 -23 -17
-40 -14 -37 -25 -40 -48 -17 -13 13 -14 19 -3 40 18 32 32 31 24 -3z m136 -35
c0 -9 5 -18 11 -20 14 -5 1 -35 -17 -42 -8 -3 -24 3 -36 14 -20 18 -20 21 -4
44 9 14 16 36 16 48 1 23 1 23 15 -2 8 -14 14 -32 15 -42z m317 10 c-2 -13 -4
-5 -4 17 -1 22 1 32 4 23 2 -10 2 -28 0 -40z m43 30 c0 -19 -2 -20 -10 -8 -13
19 -13 30 0 30 6 0 10 -10 10 -22z m747 -40 c-2 -13 -4 -3 -4 22 0 25 2 35 4
23 2 -13 2 -33 0 -45z m-7784 37 c-3 -9 -8 -14 -10 -11 -3 3 -2 9 2 15 9 16
15 13 8 -4z m6294 -7 c-3 -8 -6 -5 -6 6 -1 11 2 17 5 13 3 -3 4 -12 1 -19z
m-502 -8 c-10 -11 -20 -18 -23 -15 -7 6 18 35 31 35 5 0 2 -9 -8 -20z m129 6
c-10 -8 -21 -12 -24 -10 -5 6 21 24 34 24 6 0 1 -6 -10 -14z m216 -68 c0 -62
-5 -60 -13 5 -4 28 -3 47 3 47 6 0 10 -23 10 -52z m157 0 c-3 -8 -6 -5 -6 6
-1 11 2 17 5 13 3 -3 4 -12 1 -19z m690 -40 c-2 -13 -4 -3 -4 22 0 25 2 35 4
23 2 -13 2 -33 0 -45z m-7060 17 c-4 -8 -11 -15 -17 -15 -6 0 -6 7 2 20 14 22
24 19 15 -5z m1410 -22 c-3 -10 -5 -2 -5 17 0 19 2 27 5 18 2 -10 2 -26 0 -35z
m5117 1 c5 -13 9 -14 21 -4 12 10 15 9 15 -6 0 -11 -9 -25 -21 -32 -19 -12
-20 -11 -14 7 5 15 2 21 -9 21 -9 0 -16 7 -16 15 0 20 16 19 24 -1z m-6570
-29 c-9 -14 -18 -25 -21 -25 -5 0 5 18 20 38 17 22 18 13 1 -13z m6492 -20 c8
-21 -6 -41 -17 -24 -12 19 -11 39 1 39 6 0 13 -7 16 -15z m-239 -97 c-2 -18
-4 -4 -4 32 0 36 2 50 4 33 2 -18 2 -48 0 -65z m-6287 75 c0 -5 -23 -33 -51
-63 -55 -58 -48 -41 11 28 37 44 40 46 40 35z m6075 -23 c-3 -5 -12 -10 -18
-10 -7 0 -6 4 3 10 19 12 23 12 15 0z m395 -10 c0 -5 -7 -7 -15 -4 -8 4 -15 8
-15 10 0 2 7 4 15 4 8 0 15 -4 15 -10z m650 -30 c0 -22 -4 -40 -10 -40 -5 0
-10 18 -10 40 0 22 5 40 10 40 6 0 10 -18 10 -40z m-650 -5 c0 -8 -7 -15 -15
-15 -13 0 -14 3 -3 15 16 18 18 18 18 0z m-6621 -112 c-13 -15 -29 -33 -36
-40 -6 -7 -15 -13 -19 -13 -5 0 10 18 31 40 44 45 61 54 24 13z m4928 -60 c-2
-16 -4 -3 -4 27 0 30 2 43 4 28 2 -16 2 -40 0 -55z m-5046 -85 c-17 -23 -31
-39 -31 -35 0 12 53 88 58 83 2 -3 -10 -24 -27 -48z m9116 5 c-3 -10 -5 -4 -5
12 0 17 2 24 5 18 2 -7 2 -21 0 -30z m-9169 -68 c-6 -14 -15 -25 -20 -25 -5 0
-1 11 8 25 9 14 18 25 20 25 2 0 -2 -11 -8 -25z m6619 -97 c-2 -13 -4 -3 -4
22 0 25 2 35 4 23 2 -13 2 -33 0 -45z m-6672 23 c-3 -6 -11 -11 -16 -11 -5 0
-4 6 3 14 14 16 24 13 13 -3z m-30 -40 c-3 -6 -11 -11 -16 -11 -5 0 -4 6 3 14
14 16 24 13 13 -3z m-77 -91 c-7 -11 -17 -20 -22 -20 -5 0 -1 9 9 20 10 11 20
20 22 20 2 0 -2 -9 -9 -20z m5419 14 c-3 -3 -12 -4 -19 -1 -8 3 -5 6 6 6 11 1
17 -2 13 -5z m60 -10 c-3 -3 -12 -4 -19 -1 -8 3 -5 6 6 6 11 1 17 -2 13 -5z
m-650 -106 c-3 -7 -5 -2 -5 12 0 14 2 19 5 13 2 -7 2 -19 0 -25z m4660 -30
c-2 -13 -4 -3 -4 22 0 25 2 35 4 23 2 -13 2 -33 0 -45z m-9656 -81 c-10 -9
-11 -8 -5 6 3 10 9 15 12 12 3 -3 0 -11 -7 -18z m4639 13 c13 -9 13 -11 0 -19
-9 -6 -19 -6 -27 1 -28 23 -5 39 27 18z m420 6 c0 -3 -4 -8 -10 -11 -5 -3 -10
-1 -10 4 0 6 5 11 10 11 6 0 10 -2 10 -4z m5067 -48 c-3 -8 -6 -5 -6 6 -1 11
2 17 5 13 3 -3 4 -12 1 -19z m-5077 -8 c-6 -11 -13 -20 -15 -20 -3 0 -5 9 -5
20 0 11 7 20 15 20 13 0 14 -4 5 -20z m555 -10 c-3 -5 -15 -10 -26 -10 -11 0
-17 5 -14 10 3 6 15 10 26 10 11 0 17 -4 14 -10z m-505 -10 c0 -5 -4 -10 -10
-10 -5 0 -10 5 -10 10 0 6 5 10 10 10 6 0 10 -4 10 -10z m154 -94 c-10 -8 -21
-12 -24 -10 -5 6 21 24 34 24 6 0 1 -6 -10 -14z m223 -148 c-2 -24 -4 -5 -4
42 0 47 2 66 4 43 2 -24 2 -62 0 -85z m250 100 c-3 -8 -6 -5 -6 6 -1 11 2 17
5 13 3 -3 4 -12 1 -19z m-4480 -115 c-2 -16 -4 -5 -4 22 0 28 2 40 4 28 2 -13
2 -35 0 -50z m11103 -97 c0 -2 -8 -10 -17 -17 -16 -13 -17 -12 -4 4 13 16 21
21 21 13z m-1640 -27 c0 -6 -4 -7 -10 -4 -5 3 -10 11 -10 16 0 6 5 7 10 4 6
-3 10 -11 10 -16z m-10 -30 c0 -5 -4 -9 -10 -9 -5 0 -10 7 -10 16 0 8 5 12 10
9 6 -3 10 -10 10 -16z m2355 11 c3 -5 1 -10 -4 -10 -6 0 -11 5 -11 10 0 6 2
10 4 10 3 0 8 -4 11 -10z m156 -57 c13 -16 12 -17 -3 -4 -17 13 -22 21 -14 21
2 0 10 -8 17 -17z m-2591 -18 c11 -13 10 -14 -4 -9 -9 3 -16 10 -16 15 0 13 6
11 20 -6z m2610 -41 c0 -2 -7 -4 -15 -4 -8 0 -15 4 -15 10 0 5 7 7 15 4 8 -4
15 -8 15 -10z m-2603 0 c-3 -3 -12 -4 -19 -1 -8 3 -5 6 6 6 11 1 17 -2 13 -5z
m104 -11 c13 -16 12 -17 -3 -4 -10 7 -18 15 -18 17 0 8 8 3 21 -13z m-382 -43
c0 -10 -3 -8 -9 5 -12 27 -12 43 0 25 5 -8 9 -22 9 -30z m3372 -87 c-12 -20
-14 -14 -5 12 4 9 9 14 11 11 3 -2 0 -13 -6 -23z m-2990 -6 c-10 -9 -11 -8 -5
6 3 10 9 15 12 12 3 -3 0 -11 -7 -18z m-184 -49 c-3 -8 -6 -5 -6 6 -1 11 2 17
5 13 3 -3 4 -12 1 -19z m3050 -24 c-3 -3 -12 -4 -19 -1 -8 3 -5 6 6 6 11 1 17
-2 13 -5z m-357 -28 c0 -3 -4 -8 -10 -11 -5 -3 -10 -1 -10 4 0 6 5 11 10 11 6
0 10 -2 10 -4z m447 -22 c-3 -3 -12 -4 -19 -1 -8 3 -5 6 6 6 11 1 17 -2 13 -5z
m113 -24 c0 -5 -5 -10 -11 -10 -5 0 -7 5 -4 10 3 6 8 10 11 10 2 0 4 -4 4 -10z
m-1433 -22 c-3 -8 -6 -5 -6 6 -1 11 2 17 5 13 3 -3 4 -12 1 -19z m-1387 -39
c0 -6 -4 -7 -10 -4 -5 3 -10 11 -10 16 0 6 5 7 10 4 6 -3 10 -11 10 -16z
m-353 -75 c-3 -3 -12 -4 -19 -1 -8 3 -5 6 6 6 11 1 17 -2 13 -5z m2390 -540
c-3 -3 -12 -4 -19 -1 -8 3 -5 6 6 6 11 1 17 -2 13 -5z m63 -22 c0 -5 -7 -17
-15 -28 -14 -18 -14 -17 -4 9 12 27 19 34 19 19z m-73 -48 c-3 -3 -12 -4 -19
-1 -8 3 -5 6 6 6 11 1 17 -2 13 -5z m-70 -20 c-3 -3 -12 -4 -19 -1 -8 3 -5 6
6 6 11 1 17 -2 13 -5z"/>
<path d="M14342 9971 c23 -30 45 -42 34 -18 -3 6 -9 20 -12 30 -4 9 -15 17
-26 17 -19 0 -18 -1 4 -29z"/>
<path d="M14401 9964 c0 -11 3 -14 6 -6 3 7 2 16 -1 19 -3 4 -6 -2 -5 -13z"/>
<path d="M13715 9620 c3 -5 11 -10 16 -10 6 0 7 5 4 10 -3 6 -11 10 -16 10 -6
0 -7 -4 -4 -10z"/>
<path d="M13495 9530 c-3 -5 -2 -10 4 -10 5 0 12 -8 14 -17 3 -10 4 -6 4 10
-1 27 -11 35 -22 17z"/>
<path d="M13973 8940 c0 -36 2 -50 4 -32 2 17 2 47 0 65 -2 17 -4 3 -4 -33z"/>
<path d="M14062 8260 c0 -14 2 -19 5 -12 2 6 2 18 0 25 -3 6 -5 1 -5 -13z"/>
<path d="M14051 8174 c0 -11 3 -14 6 -6 3 7 2 16 -1 19 -3 4 -6 -2 -5 -13z"/>
<path d="M14069 8118 c-1 -41 -2 -42 -10 -13 -7 26 -8 25 -4 -10 3 -22 5 -69
5 -104 0 -35 2 -62 5 -59 7 7 16 228 10 228 -3 0 -6 -19 -6 -42z"/>
<path d="M13051 7894 c0 -11 3 -14 6 -6 3 7 2 16 -1 19 -3 4 -6 -2 -5 -13z"/>
<path d="M13059 7763 c-1 -34 -2 -35 -9 -13 l-8 25 -1 -27 c-1 -16 3 -28 8
-28 6 0 12 -24 14 -52 2 -34 4 -20 5 40 1 50 0 92 -3 92 -3 0 -5 -17 -6 -37z"/>
<path d="M13008 7763 c7 -3 16 -2 19 1 4 3 -2 6 -13 5 -11 0 -14 -3 -6 -6z"/>
<path d="M13111 7944 c0 -11 3 -14 6 -6 3 7 2 16 -1 19 -3 4 -6 -2 -5 -13z"/>
<path d="M13111 7714 c0 -11 3 -14 6 -6 3 7 2 16 -1 19 -3 4 -6 -2 -5 -13z"/>
<path d="M13545 7530 c-3 -5 1 -10 10 -10 9 0 13 5 10 10 -3 6 -8 10 -10 10
-2 0 -7 -4 -10 -10z"/>
<path d="M13121 7484 c0 -11 3 -14 6 -6 3 7 2 16 -1 19 -3 4 -6 -2 -5 -13z"/>
<path d="M12920 7310 c0 -5 5 -10 10 -10 6 0 10 5 10 10 0 6 -4 10 -10 10 -5
0 -10 -4 -10 -10z"/>
<path d="M11700 7130 c0 -5 5 -10 10 -10 6 0 10 5 10 10 0 6 -4 10 -10 10 -5
0 -10 -4 -10 -10z"/>
</g>
</svg>
