<?xml version="1.0" standalone="no"?>
<!DOCTYPE svg PUBLIC "-//W3C//DTD SVG 20010904//EN"
 "http://www.w3.org/TR/2001/REC-SVG-20010904/DTD/svg10.dtd">
<svg version="1.0" xmlns="http://www.w3.org/2000/svg"
 width="254.000000pt" height="198.000000pt" viewBox="0 0 254.000000 198.000000"
 preserveAspectRatio="xMidYMid meet">

<g transform="translate(0.000000,198.000000) scale(0.100000,-0.100000)"
fill="#000000" stroke="none">
<path d="M80 1125 c0 -3 7 -21 14 -40 14 -32 18 -35 59 -35 40 0 45 3 66 40
l22 40 -80 0 c-45 0 -81 -2 -81 -5z"/>
<path d="M391 1090 l-22 -39 138 -3 138 -3 -37 -23 c-36 -22 -38 -27 -38 -72
l0 -49 70 42 c76 45 96 76 85 126 -11 53 -34 61 -180 61 l-131 0 -23 -40z"/>
<path d="M800 1115 c-15 -18 -6 -33 27 -46 29 -11 25 -34 -6 -33 -11 0 -21 -3
-21 -8 0 -4 13 -8 29 -8 53 0 45 50 -12 73 -17 8 12 27 30 20 7 -3 13 0 13 6
0 16 -46 13 -60 -4z"/>
<path d="M910 1120 c0 -5 7 -10 14 -10 11 0 16 -14 19 -47 l3 -48 2 48 c1 33
6 47 16 47 8 0 18 5 21 10 4 6 -10 10 -34 10 -23 0 -41 -4 -41 -10z"/>
<path d="M1030 1076 c0 -65 20 -77 21 -13 l1 42 15 -42 c18 -51 29 -54 38 -10
12 52 20 55 26 7 l6 -45 1 58 c2 43 -1 57 -12 57 -8 0 -17 -14 -21 -32 -12
-53 -19 -56 -31 -13 -6 23 -18 41 -27 43 -14 3 -17 -6 -17 -52z"/>
<path d="M1200 1075 c0 -30 5 -55 10 -55 6 0 10 25 10 55 0 30 -4 55 -10 55
-5 0 -10 -25 -10 -55z"/>
<path d="M1280 1075 c0 -30 5 -55 10 -55 6 0 10 9 10 20 0 11 4 20 9 20 5 0
13 -9 16 -20 3 -11 11 -20 17 -20 6 0 7 7 3 18 -10 22 -10 42 -1 70 4 12 3 22
-2 22 -6 0 -13 -11 -16 -25 -4 -14 -11 -25 -16 -25 -6 0 -10 11 -10 25 0 14
-4 25 -10 25 -5 0 -10 -25 -10 -55z"/>
<path d="M798 984 c-5 -4 -8 -56 -8 -116 0 -101 1 -108 20 -108 17 0 20 7 21
53 0 45 2 49 11 30 12 -25 54 -31 89 -13 15 9 19 21 19 68 0 31 -4 64 -9 71
-10 16 -130 29 -143 15z m112 -79 c0 -34 -1 -35 -40 -35 -39 0 -40 1 -40 35 0
34 1 35 40 35 39 0 40 -1 40 -35z"/>
<path d="M987 983 c-4 -3 -7 -55 -7 -115 0 -101 1 -108 20 -108 17 0 20 7 21
53 0 41 2 47 9 30 5 -13 16 -23 25 -23 9 0 21 -13 26 -30 8 -23 17 -30 36 -30
20 0 24 4 18 18 -15 34 -17 60 -6 66 6 4 11 31 11 61 0 44 -4 57 -22 69 -22
16 -118 22 -131 9z m111 -80 c3 -32 2 -33 -37 -33 -40 0 -41 1 -41 36 0 35 1
35 38 32 34 -3 37 -6 40 -35z"/>
<path d="M1177 984 c-4 -4 -7 -56 -7 -116 l0 -108 25 0 26 0 -3 112 c-2 92 -6
113 -18 116 -9 1 -19 0 -23 -4z"/>
<path d="M1257 984 c-4 -4 -7 -56 -7 -116 l0 -108 26 0 26 0 -3 84 c-2 46 -2
82 1 80 3 -3 14 -37 25 -77 18 -64 23 -72 44 -72 22 0 27 9 47 80 l22 80 1
-87 c1 -87 1 -88 26 -88 l26 0 -3 113 -3 112 -32 3 c-35 3 -45 -9 -58 -68 -4
-19 -12 -46 -17 -60 -9 -23 -12 -18 -31 50 -21 71 -24 75 -52 78 -17 2 -34 0
-38 -4z"/>
<path d="M1564 975 c-3 -8 -16 -59 -28 -115 l-23 -100 22 0 c18 0 24 8 31 38
4 22 9 30 11 20 3 -13 14 -18 39 -18 27 0 34 -4 34 -20 0 -14 7 -20 24 -20
l24 0 -21 93 c-29 134 -30 137 -72 137 -22 0 -38 -6 -41 -15z m62 -86 l11 -49
-32 0 -33 0 10 43 c20 85 26 86 44 6z"/>
<path d="M1720 875 c0 -107 1 -115 19 -115 16 0 20 8 23 42 4 61 30 63 52 3
15 -37 22 -45 43 -45 20 0 24 4 18 18 -40 98 -40 97 -17 150 27 63 27 62 -1
62 -19 0 -27 -10 -41 -50 -13 -36 -23 -50 -37 -50 -16 0 -19 8 -19 50 0 43 -3
50 -20 50 -19 0 -20 -7 -20 -115z"/>
<path d="M1955 981 c-3 -6 -16 -57 -29 -115 l-23 -106 22 0 c18 0 24 8 31 38
4 22 9 30 11 20 3 -12 14 -18 35 -18 21 0 31 -6 35 -20 3 -13 14 -20 28 -20
l23 0 -21 93 c-29 134 -30 137 -71 137 -19 0 -37 -4 -41 -9z m61 -92 l11 -49
-32 0 -33 0 10 43 c20 85 26 86 44 6z"/>
<path d="M2118 984 c-5 -4 -8 -56 -8 -116 0 -101 1 -108 20 -108 17 0 20 7 21
53 0 45 2 49 11 30 6 -13 19 -23 29 -23 11 0 20 -10 24 -30 5 -24 12 -30 31
-30 22 0 24 3 18 23 -4 12 -7 29 -6 37 10 66 11 137 3 149 -10 16 -130 29
-143 15z m112 -79 c0 -34 -1 -35 -40 -35 -39 0 -40 1 -40 35 0 34 1 35 40 35
39 0 40 -1 40 -35z"/>
<path d="M2345 978 c-4 -15 -45 -206 -45 -213 0 -3 9 -5 19 -5 20 0 31 18 31
51 0 10 5 19 10 19 6 0 10 -7 10 -15 0 -10 10 -15 29 -15 21 0 32 -6 36 -20 5
-17 45 -30 45 -15 0 8 -40 187 -46 208 -6 21 -82 25 -89 5z m69 -100 c7 -37 6
-38 -24 -38 -30 0 -31 1 -24 38 4 20 11 46 17 57 10 19 10 19 17 0 4 -11 10
-37 14 -57z"/>
<path d="M301 836 c-100 -62 -119 -78 -148 -126 -19 -32 -29 -58 -24 -63 8 -8
242 125 279 158 8 7 12 29 10 57 l-3 45 -114 -71z"/>
</g>
</svg>
